<?xml version="1.0" encoding="UTF-8"?>
<svg xmlns="http://www.w3.org/2000/svg" xmlns:xlink="http://www.w3.org/1999/xlink" width="4000" height="4000" viewBox="0 0 4000 4000">

<path fill-rule="evenodd" fill="currentColor" fill-opacity="1" d="M 2299.738281 844.53125 L 1582.699219 844.519531 C 1532.570312 844.53125 1489.640625 871.21875 1467.46875 916.171875 C 1445.300781 961.109375 1450.238281 1011.421875 1480.738281 1051.191406 L 1917.929688 1621.261719 C 1945.769531 1657.558594 1987.050781 1675.441406 2032.570312 1670.929688 C 2078.089844 1666.410156 2115.050781 1640.761719 2135.210938 1599.691406 L 2415.078125 1029.628906 C 2435.199219 988.640625 2432.941406 943.820312 2408.789062 905.058594 C 2384.640625 866.308594 2345.410156 844.53125 2299.738281 844.53125 "/>
<path fill-rule="evenodd" fill="currentColor" fill-opacity="1" d="M 1967.269531 2574.859375 L 1625.820312 2574.859375 C 1573.578125 2574.859375 1528.929688 2604.109375 1508.050781 2652 L 1366.941406 2975.648438 C 1349.101562 3016.566406 1352.78125 3060.039062 1377.238281 3097.386719 C 1401.691406 3134.734375 1440.070312 3155.476562 1484.71875 3155.476562 L 2250.101562 3155.476562 C 2300.171875 3155.476562 2343.058594 3128.835938 2365.269531 3083.949219 L 3144.300781 1508.71875 C 3162.648438 1471.609375 3162.640625 1431.859375 3144.269531 1394.75 L 3002.519531 1108.480469 C 2980.300781 1063.609375 2937.410156 1037 2887.351562 1037.011719 C 2837.28125 1037.019531 2794.410156 1063.660156 2772.210938 1108.539062 L 2082.441406 2503.328125 C 2060.238281 2548.21875 2017.351562 2574.859375 1967.269531 2574.859375 "/>
<path fill-rule="evenodd" fill="currentColor" fill-opacity="1" d="M 1802.511719 2020.199219 L 1255.28125 1306.628906 C 1227.449219 1270.351562 1186.199219 1252.46875 1140.691406 1256.960938 C 1095.191406 1261.460938 1058.238281 1287.058594 1038.039062 1328.078125 L 855.597656 1698.800781 C 833.480469 1743.738281 838.445312 1794.011719 868.941406 1833.738281 L 1416.210938 2547 C 1444.03125 2583.269531 1485.269531 2601.140625 1530.761719 2596.648438 C 1576.261719 2592.160156 1613.199219 2566.570312 1633.398438 2525.558594 L 1815.828125 2155.160156 C 1837.949219 2110.21875 1833 2059.949219 1802.511719 2020.199219 "/>
</svg>
